<svg viewBox="0 0 200 200" xmlns="http://www.w3.org/2000/svg">
  <path d="M130 150 Q170 140 165 90 Q160 60 130 65 Q150 90 140 120 Q135 140 130 150 Z" fill="#D9A066" stroke="#4A3728" stroke-width="4" stroke-linejoin="round"/>
  <ellipse cx="95" cy="145" rx="32" ry="28" fill="#E8B87E" stroke="#4A3728" stroke-width="4"/>
  <circle cx="80" cy="90" r="30" fill="#EFC793" stroke="#4A3728" stroke-width="4"/>
  <ellipse cx="60" cy="70" rx="8" ry="12" fill="#EFC793" stroke="#4A3728" stroke-width="3.5" transform="rotate(-20 60 70)"/>
  <ellipse cx="100" cy="70" rx="8" ry="12" fill="#EFC793" stroke="#4A3728" stroke-width="3.5" transform="rotate(20 100 70)"/>
  <circle cx="72" cy="90" r="4.5" fill="#4A3728"/>
  <circle cx="90" cy="90" r="4.5" fill="#4A3728"/>
  <circle cx="73.5" cy="88.5" r="1.4" fill="#fff"/>
  <circle cx="91.5" cy="88.5" r="1.4" fill="#fff"/>
  <ellipse cx="81" cy="100" rx="5" ry="4" fill="#4A3728"/>
  <circle cx="95" cy="130" r="10" fill="#C98A3E" stroke="#4A3728" stroke-width="2.5"/>
  <circle cx="66" cy="98" r="4" fill="#FFB6C1" opacity="0.6"/>
</svg>
