<svg xmlns="http://www.w3.org/2000/svg" width="440" height="440" viewBox="0 0 440 440">
  <defs>
    <linearGradient id="sky" x1="0" y1="0" x2="0" y2="1">
      <stop offset="0%" stop-color="#7ec8ff"/>
      <stop offset="55%" stop-color="#c8f0ff"/>
      <stop offset="100%" stop-color="#ffe3ef"/>
    </linearGradient>
    <linearGradient id="body" x1="0" y1="0" x2="1" y2="1">
      <stop offset="0%" stop-color="#fff0a8"/>
      <stop offset="50%" stop-color="#ffd24a"/>
      <stop offset="100%" stop-color="#ff9f2e"/>
    </linearGradient>
  </defs>
  <rect width="440" height="440" fill="url(#sky)"/>
  <path d="M40 320 C120 240 200 280 280 220 C340 170 380 200 420 160" fill="none" stroke="#9aa7bd" stroke-width="64" stroke-linecap="round"/>
  <path d="M40 320 C120 240 200 280 280 220 C340 170 380 200 420 160" fill="none" stroke="#ff9ec4" stroke-width="52" stroke-linecap="round"/>
  <path d="M40 320 C120 240 200 280 280 220 C340 170 380 200 420 160" fill="none" stroke="#7b879c" stroke-width="36" stroke-linecap="round"/>
  <g transform="translate(250 210) rotate(35)">
    <ellipse cx="4" cy="18" rx="28" ry="16" fill="rgba(60,40,70,0.2)"/>
    <rect x="-26" y="-34" width="52" height="68" rx="18" fill="url(#body)"/>
    <rect x="-18" y="-10" width="36" height="28" rx="12" fill="#ffe9a0"/>
    <circle cx="0" cy="-22" r="18" fill="#ffd24a"/>
    <circle cx="-6" cy="-24" r="3" fill="#3d2a45"/>
    <circle cx="6" cy="-24" r="3" fill="#3d2a45"/>
    <path d="M0 -18 L8 -15 L0 -12 Z" fill="#ff7a3a"/>
    <rect x="-32" y="-20" width="10" height="18" rx="3" fill="#3d2a45"/>
    <rect x="22" y="-20" width="10" height="18" rx="3" fill="#3d2a45"/>
    <rect x="-32" y="12" width="10" height="18" rx="3" fill="#3d2a45"/>
    <rect x="22" y="12" width="10" height="18" rx="3" fill="#3d2a45"/>
  </g>
  <circle cx="120" cy="300" r="18" fill="rgba(255,255,255,0.55)"/>
  <circle cx="150" cy="280" r="12" fill="rgba(255,255,255,0.4)"/>
  <circle cx="95" cy="275" r="10" fill="rgba(255,255,255,0.35)"/>
</svg>
